<svg width="16" height="16" viewBox="0 0 16 16" fill="none" xmlns="http://www.w3.org/2000/svg">
<g clip-path="url(#clip0_31_2030)">
<path fill-rule="evenodd" clip-rule="evenodd" d="M10.4722 7.52876C10.5972 7.65378 10.6674 7.82332 10.6674 8.0001C10.6674 8.17687 10.5972 8.34641 10.4722 8.47143L6.70088 12.2428C6.63938 12.3064 6.56582 12.3572 6.48448 12.3922C6.40315 12.4271 6.31567 12.4455 6.22715 12.4463C6.13863 12.447 6.05084 12.4302 5.96891 12.3966C5.88698 12.3631 5.81254 12.3136 5.74995 12.251C5.68735 12.1884 5.63785 12.114 5.60433 12.0321C5.57081 11.9501 5.55394 11.8623 5.55471 11.7738C5.55548 11.6853 5.57387 11.5978 5.60881 11.5165C5.64375 11.4352 5.69454 11.3616 5.75821 11.3001L9.05821 8.0001L5.75821 4.7001C5.63677 4.57436 5.56958 4.40596 5.5711 4.23116C5.57262 4.05637 5.64273 3.88916 5.76633 3.76555C5.88994 3.64195 6.05715 3.57183 6.23195 3.57031C6.40674 3.56879 6.57515 3.63599 6.70088 3.75743L10.4722 7.52876Z" fill="#394E67"/>
</g>
<defs>
<clipPath id="clip0_31_2030">
<rect width="16" height="16" fill="white"/>
</clipPath>
</defs>
</svg>
