<svg width="17" height="17" viewBox="0 0 17 17" fill="none" xmlns="http://www.w3.org/2000/svg">
<g clip-path="url(#clip0_2001_156)">
<path fill-rule="evenodd" clip-rule="evenodd" d="M8.61418 10.9712C8.48916 11.0962 8.31962 11.1664 8.14285 11.1664C7.96607 11.1664 7.79653 11.0962 7.67151 10.9712L3.90018 7.1999C3.83651 7.13841 3.78572 7.06484 3.75078 6.98351C3.71584 6.90217 3.69745 6.81469 3.69668 6.72617C3.69591 6.63765 3.71278 6.54986 3.7463 6.46793C3.77982 6.386 3.82932 6.31157 3.89192 6.24897C3.95451 6.18638 4.02895 6.13688 4.11088 6.10336C4.19281 6.06983 4.2806 6.05297 4.36911 6.05374C4.45763 6.05451 4.54511 6.0729 4.62645 6.10784C4.70779 6.14277 4.78135 6.19356 4.84285 6.25724L8.14285 9.55724L11.4428 6.25724C11.5686 6.1358 11.737 6.0686 11.9118 6.07012C12.0866 6.07164 12.2538 6.14175 12.3774 6.26536C12.501 6.38896 12.5711 6.55617 12.5726 6.73097C12.5742 6.90577 12.507 7.07417 12.3855 7.1999L8.61418 10.9712Z" fill="#394E67"/>
</g>
<defs>
<clipPath id="clip0_2001_156">
<rect width="16" height="16" fill="white" transform="translate(0.142822 0.5)"/>
</clipPath>
</defs>
</svg>
