<svg width="16" height="16" viewBox="0 0 16 16" fill="none" xmlns="http://www.w3.org/2000/svg">
<g opacity="0.5" clip-path="url(#clip0_2001_833)">
<path fill-rule="evenodd" clip-rule="evenodd" d="M5.63057 8.58977C5.50559 8.46475 5.43538 8.29521 5.43538 8.11843C5.43538 7.94166 5.50559 7.77212 5.63057 7.6471L9.4019 3.87577C9.4634 3.81209 9.53696 3.76131 9.6183 3.72637C9.69964 3.69143 9.78712 3.67304 9.87564 3.67227C9.96416 3.6715 10.0519 3.68837 10.1339 3.72189C10.2158 3.75541 10.2902 3.80491 10.3528 3.8675C10.4154 3.9301 10.4649 4.00453 10.4985 4.08646C10.532 4.16839 10.5488 4.25618 10.5481 4.3447C10.5473 4.43322 10.5289 4.5207 10.494 4.60204C10.459 4.68337 10.4082 4.75694 10.3446 4.81843L7.04457 8.11843L10.3446 11.4184C10.466 11.5442 10.5332 11.7126 10.5317 11.8874C10.5302 12.0622 10.4601 12.2294 10.3364 12.353C10.2128 12.4766 10.0456 12.5467 9.87084 12.5482C9.69604 12.5497 9.52764 12.4825 9.4019 12.3611L5.63057 8.58977Z" fill="#394E67"/>
</g>
<defs>
<clipPath id="clip0_2001_833">
<rect width="16" height="16" fill="white"/>
</clipPath>
</defs>
</svg>
