<svg width="16" height="16" viewBox="0 0 16 16" fill="none" xmlns="http://www.w3.org/2000/svg">
<path fill-rule="evenodd" clip-rule="evenodd" d="M10.3528 7.63069C10.4778 7.75571 10.548 7.92525 10.548 8.10203C10.548 8.2788 10.4778 8.44834 10.3528 8.57336L6.58149 12.3447C6.52 12.4084 6.44643 12.4592 6.3651 12.4941C6.28376 12.529 6.19628 12.5474 6.10776 12.5482C6.01924 12.549 5.93146 12.5321 5.84953 12.4986C5.76759 12.4651 5.69316 12.4156 5.63056 12.353C5.56797 12.2904 5.51847 12.2159 5.48495 12.134C5.45143 12.0521 5.43456 11.9643 5.43533 11.8758C5.4361 11.7872 5.45449 11.6998 5.48943 11.6184C5.52437 11.5371 5.57515 11.4635 5.63883 11.402L8.93883 8.10203L5.63883 4.80202C5.51739 4.67629 5.45019 4.50789 5.45171 4.33309C5.45323 4.15829 5.52334 3.99109 5.64695 3.86748C5.77055 3.74387 5.93776 3.67376 6.11256 3.67224C6.28736 3.67072 6.45576 3.73792 6.58149 3.85936L10.3528 7.63069Z" fill="#394E67"/>
</svg>
