<svg width="29" height="26" viewBox="0 0 29 26" fill="none" xmlns="http://www.w3.org/2000/svg">
<path d="M12 24C12 24.3956 11.8827 24.7822 11.6629 25.1111C11.4432 25.44 11.1308 25.6964 10.7654 25.8478C10.3999 25.9991 9.99778 26.0387 9.60982 25.9616C9.22186 25.8844 8.86549 25.6939 8.58579 25.4142C8.30608 25.1345 8.1156 24.7781 8.03843 24.3902C7.96126 24.0022 8.00087 23.6001 8.15224 23.2346C8.30362 22.8692 8.55996 22.5568 8.88886 22.3371C9.21776 22.1173 9.60444 22 10 22C10.5304 22 11.0391 22.2107 11.4142 22.5858C11.7893 22.9609 12 23.4696 12 24ZM23 22C22.6044 22 22.2178 22.1173 21.8889 22.3371C21.56 22.5568 21.3036 22.8692 21.1522 23.2346C21.0009 23.6001 20.9613 24.0022 21.0384 24.3902C21.1156 24.7781 21.3061 25.1345 21.5858 25.4142C21.8655 25.6939 22.2219 25.8844 22.6098 25.9616C22.9978 26.0387 23.3999 25.9991 23.7654 25.8478C24.1308 25.6964 24.4432 25.44 24.6629 25.1111C24.8827 24.7822 25 24.3956 25 24C25 23.4696 24.7893 22.9609 24.4142 22.5858C24.0391 22.2107 23.5304 22 23 22ZM28.805 5.40625C28.712 5.28023 28.5907 5.17781 28.4509 5.10724C28.3111 5.03668 28.1566 4.99995 28 5H6.04L5.02625 1.45C4.90526 1.03293 4.65246 0.666259 4.30567 0.404872C3.95888 0.143485 3.53676 0.00144056 3.1025 0H1C0.734784 0 0.48043 0.105357 0.292893 0.292893C0.105357 0.48043 0 0.734784 0 1C0 1.26522 0.105357 1.51957 0.292893 1.70711C0.48043 1.89464 0.734784 2 1 2H3.1025L7.625 17.8237C7.80598 18.4494 8.18477 18.9996 8.70463 19.3919C9.2245 19.7842 9.85747 19.9976 10.5087 20H22.5225C23.1646 20.0022 23.7903 19.7975 24.3068 19.416C24.8234 19.0346 25.2032 18.4968 25.39 17.8825L28.9562 6.29375C29.0022 6.14429 29.0124 5.98615 28.9861 5.83202C28.9599 5.67788 28.8978 5.53206 28.805 5.40625Z" fill="#394E67"/>
</svg>
