<svg width="50" height="50" viewBox="0 0 50 50" fill="none" xmlns="http://www.w3.org/2000/svg">
<path d="M33.5938 23.4375C33.5938 25.1372 33.0897 26.7987 32.1454 28.2119C31.2012 29.6252 29.859 30.7266 28.2887 31.3771C26.7184 32.0275 24.9905 32.1977 23.3235 31.8661C21.6564 31.5345 20.1252 30.7161 18.9233 29.5142C17.7215 28.3123 16.903 26.7811 16.5714 25.1141C16.2398 23.447 16.41 21.7191 17.0604 20.1488C17.7109 18.5785 18.8123 17.2364 20.2256 16.2921C21.6388 15.3478 23.3003 14.8438 25 14.8438C27.2784 14.8463 29.4628 15.7526 31.0739 17.3637C32.6849 18.9747 33.5912 21.1591 33.5938 23.4375ZM45.3125 25C45.3125 29.0174 44.1212 32.9446 41.8892 36.285C39.6573 39.6254 36.4849 42.2289 32.7733 43.7663C29.0616 45.3037 24.9775 45.706 21.0372 44.9222C17.097 44.1384 13.4777 42.2039 10.6369 39.3631C7.79615 36.5224 5.86157 32.903 5.07781 28.9628C4.29405 25.0225 4.6963 20.9384 6.23371 17.2267C7.77111 13.5151 10.3746 10.3427 13.715 8.11077C17.0554 5.87881 20.9826 4.6875 25 4.6875C30.3855 4.69319 35.5487 6.83507 39.3568 10.6432C43.1649 14.4513 45.3068 19.6145 45.3125 25ZM42.1875 25C42.185 22.6866 41.716 20.3974 40.8085 18.2695C39.901 16.1415 38.5737 14.2183 36.9059 12.6151C35.2381 11.0119 33.2641 9.76144 31.102 8.9386C28.9399 8.11576 26.634 7.73741 24.3223 7.82617C15.1231 8.18164 7.78712 15.8438 7.81251 25.0488C7.82133 29.2393 9.36685 33.281 12.1563 36.4082C13.2922 34.7606 14.7352 33.3474 16.4063 32.2461C16.5487 32.152 16.7181 32.1072 16.8885 32.1184C17.0588 32.1297 17.2208 32.1965 17.3496 32.3086C19.473 34.1452 22.1867 35.156 24.9942 35.156C27.8016 35.156 30.5153 34.1452 32.6387 32.3086C32.7675 32.1965 32.9295 32.1297 33.0998 32.1184C33.2702 32.1072 33.4396 32.152 33.582 32.2461C35.2552 33.3468 36.7002 34.76 37.8379 36.4082C40.6411 33.2696 42.1896 29.2082 42.1875 25Z" fill="#394E67" fill-opacity="0.5"/>
</svg>
